<svg xmlns="http://www.w3.org/2000/svg" width="1024" height="1024" viewBox="0 0 1024 1024">
  <defs>
    <linearGradient id="g" x1="0" y1="0" x2="0" y2="1">
      <stop offset="0%" stop-color="#7A7A7A"/>
      <stop offset="100%" stop-color="#595959"/>
    </linearGradient>
  </defs>

  <!-- Squircle filling the full macOS safe area (824x824 centered in 1024x1024, leaves 100px shadow margin). -->
  <rect x="100" y="100" width="824" height="824" rx="184" ry="184" fill="url(#g)"/>

  <!-- Calendar icon centered. 24px-viewBox icon scaled 20x = 480x480, placed at (272,272). -->
  <g transform="translate(272, 272) scale(20)" fill="#FFFFFF">
    <path d="M7.75 2.5a.75.75 0 0 0-1.5 0v1.58c-1.44.115-2.384.397-3.078 1.092c-.695.694-.977 1.639-1.093 3.078h19.842c-.116-1.44-.398-2.384-1.093-3.078c-.694-.695-1.639-.977-3.078-1.093V2.5a.75.75 0 0 0-1.5 0v1.513C15.585 4 14.839 4 14 4h-4c-.839 0-1.585 0-2.25.013z"/>
    <path fill-rule="evenodd" d="M2 12c0-.839 0-1.585.013-2.25h19.974C22 10.415 22 11.161 22 12v2c0 3.771 0 5.657-1.172 6.828S17.771 22 14 22h-4c-3.771 0-5.657 0-6.828-1.172S2 17.771 2 14zm15 2a1 1 0 1 0 0-2a1 1 0 0 0 0 2m0 4a1 1 0 1 0 0-2a1 1 0 0 0 0 2m-4-5a1 1 0 1 1-2 0a1 1 0 0 1 2 0m0 4a1 1 0 1 1-2 0a1 1 0 0 1 2 0m-6-3a1 1 0 1 0 0-2a1 1 0 0 0 0 2m0 4a1 1 0 1 0 0-2a1 1 0 0 0 0 2" clip-rule="evenodd"/>
  </g>
</svg>
